<?xml version="1.0" standalone="no"?><!DOCTYPE svg PUBLIC "-//W3C//DTD SVG 1.1//EN" "http://www.w3.org/Graphics/SVG/1.1/DTD/svg11.dtd"><svg t="1655340897460" class="icon" viewBox="0 0 1024 1024" version="1.1" xmlns="http://www.w3.org/2000/svg" p-id="3261" xmlns:xlink="http://www.w3.org/1999/xlink" width="200" height="200"><defs><style type="text/css"></style></defs><path d="M685.17139 30.571686A492.432138 492.432138 0 0 0 462.506423 2.738565c-85.640372 6.423028-126.319549 34.256149-124.178539 27.833121a511.701222 511.701222 0 1 0 346.843506 0zM351.17394 949.064675a413.214794 413.214794 0 0 1-81.358353-40.679177h2.141009c124.178539 8.564037 284.754237-19.269084 396.08672-122.03753 0 0 207.677902-166.998725 55.666242-438.906906 0 0 25.692112 109.191474-6.423028 199.113865A224.805976 224.805976 0 0 1 556.710832 707.130624c-192.690837 51.384223-413.214794-83.499363-505.278194-149.870651a466.740027 466.740027 0 0 1 23.551102-203.395883 460.316999 460.316999 0 0 1 190.549828-231.229004c-21.410093 147.729642-4.282019 282.613227 19.269084 340.420478s87.781381 164.857716 196.972855 175.562762 166.998725-89.922391 166.998725-89.92239c55.666242-85.640372 64.230279-207.677902 64.230279-209.818911s-14.987065-10.705046-14.987065-10.705047c-36.397158 152.01166-98.486428 203.395883-98.486428 203.395884-98.486428 94.204409-166.998725 27.833121-166.998725 27.83312-74.935325-79.217344-23.551102-209.818911-23.551102-209.818911a655.148845 655.148845 0 0 1 209.818911-282.613227l49.243214 10.705046A488.15012 488.15012 0 0 1 820.054976 171.8783c-70.653307 25.692112-184.1268 79.217344-184.1268 79.217344-179.844781 74.935325-192.690837 190.549827-192.690836 190.549827-17.128074 117.755511 77.076335 68.512298 77.076334 68.512298 96.345418-47.102205 143.447623-194.831846 143.447623-194.831847a113.473493 113.473493 0 0 0-53.525232 4.282019 278.331209 278.331209 0 0 1-117.755511 134.883586c-32.115139 14.987065-38.538167-12.846056-38.538168-12.846056l23.551102-25.692112a158.434688 158.434688 0 0 0 74.935326-79.217344c6.423028-19.269084 17.128074-21.410093 17.128074-21.410093a640.16178 640.16178 0 0 1 111.332484-21.410093h2.141009c72.794316-10.705046 184.1268 25.692112 184.1268 25.692112l70.653306 23.551102a460.316999 460.316999 0 0 1-586.636547 605.905632z" fill="#007CFF" p-id="3262"></path></svg>