<?xml version="1.0" standalone="no"?><!DOCTYPE svg PUBLIC "-//W3C//DTD SVG 1.1//EN" "http://www.w3.org/Graphics/SVG/1.1/DTD/svg11.dtd"><svg t="1655796751227" class="icon" viewBox="0 0 1024 1024" version="1.1" xmlns="http://www.w3.org/2000/svg" p-id="12198" xmlns:xlink="http://www.w3.org/1999/xlink" width="200" height="200"><defs><style type="text/css"></style></defs><path d="M952.21141306 385.95384197c-27.51321332-89.41794327-82.53963995-169.66409896-153.61508277-226.98400986-11.46419713 13.75660666-29.80669759 29.80669759-55.02642663 48.1481233 22.92731952 52.7340171 38.97633571 112.34633753 50.44053282 178.83588656h158.20097658z m11.46419712 48.1481233h-165.07927989c2.29240953 27.51321332 4.58481906 55.02642663 4.58481906 84.83312422 0 55.02642663-4.58481906 107.759369-13.75660666 160.49338609C787.13213316 690.89267271 777.9614203 700.06338557 766.49722318 700.06338557V530.39821188 700.06338557h-4.5858938c-13.75660666-2.29240953-20.63491-16.04901618-18.34142572-27.51321332 9.17071286-48.1481233 13.75660666-98.58865615 13.75660665-151.32267323 0-29.80562285-2.29348427-57.31883617-4.5858938-84.83204949H546.39151664v107.759369c0 13.75660666-11.46419713 25.22080379-25.22080378 25.2208038-13.75660666 0-25.21972905-11.46419713-25.21972904-25.2208038V436.39544953H278.13768681c-2.29240953 18.34142572-2.29240953 34.39151664-4.5858938 52.73294237v6.87830333c0 13.75660666-11.46312238 22.92839425-25.21972904 22.92839426S225.40366971 507.47089236 225.40366971 493.7142857v-9.17071286c0-18.34250045 2.29348427-34.39151664 2.29348427-50.44160757h-165.0792799c-4.5858938 27.51321332-6.87830334 55.02642663-6.87830334 84.83312422 0 16.04901618 0 32.09803238 2.29240955 48.1481233 2.29240953 13.75660666-9.17071286 25.21972905-20.63491 27.51321331-13.75660666 0-25.22080379-9.17178759-27.51321331-20.63490998-2.29240953-20.63491-2.29240953-38.97741045-2.29240953-55.02642663 0-38.97741045 4.58481906-75.66133663 11.46312239-110.05285327 0-2.29348427 0-4.5858938 2.29348427-6.87830333C74.08099647 177.31233256 275.84527729 12.23305267 514.29240953 12.23305267s440.21141306 165.07927989 492.94543016 389.77088022c0 2.29240953 2.29240953 4.58481906 2.29240954 6.87830333 6.87830334 36.68392618 11.46419713 73.36785235 11.46419711 110.05285327 0 77.95374615-18.34250045 153.61508278-52.73401708 224.69052559 0 2.29348427-2.29240953 2.29348427-2.29240955 4.5858938-103.17454994 158.20097657-231.56990366 243.03302605-380.59909262 249.91132937H560.1481233c-112.34526279 0-208.64150941-38.97633571-286.59633029-114.63767233L158.91412069 998.12283825c-4.5858938 4.5858938-11.46419713 6.87830334-16.05009093 6.87830334-2.29240953 0-6.87830334 0-9.17071286-2.29240955-9.17071286-4.5858938-13.75660666-11.46419713-16.04901619-22.92731951l-6.87830333-357.67177311c0-6.87830334 2.29240953-13.75660666 6.87830333-18.34250046 4.58481906-4.5858938 11.46312238-6.87830334 18.34142573-6.87830332l357.67177311 9.17071285c9.17178759 0 18.34250045 6.87830334 22.92839425 16.05009093 4.58481906 9.17071286 2.29240953 18.34142572-4.5858938 25.21972906l-105.46695946 105.46803418c52.73294237 36.68392618 121.51597565 59.6112457 199.47079653 66.48954904 89.41794327 6.87830334 190.29900895-13.75660666 259.08204224-52.73294237 45.85571377-27.51321332 73.36892709-68.78303329 75.66133661-77.95482088 20.63491-52.73294237 32.09910711-110.05285326 32.09910713-167.37168943-2.29240953-32.09910711-4.5858938-59.61232043-9.17071287-87.12553375z m-887.30112944-48.1481233h158.20097657c11.46312238-68.78303329 29.80562285-132.98017278 52.73294236-185.7141899-18.34142572-13.75660666-36.68392618-27.51321332-55.02642663-43.56222948-73.36785235 57.31883617-128.39427898 137.56606658-155.9074923 229.27641938z m206.34909988 0h213.2274032v-110.05285327C438.63107291 271.31616964 381.31223675 252.97366919 328.57821965 225.46045587c-20.63491 45.85571377-36.68392618 100.8821404-45.85463903 160.4933861z m261.37552649 0h199.47079655c-9.17178759-55.02642663-22.92839425-107.759369-43.56330425-151.32267323-41.26981997 22.92839425-94.00276235 41.26981997-158.20097656 43.56330423v107.759369z m123.80945992-298.05945268c20.63491 20.63491 38.97633571 48.1481233 55.02642664 75.66133662 16.04901618-11.46419713 27.51321332-22.92731952 36.68392618-32.09910712-29.80562285-18.34142572-61.90472997-34.39151664-91.71035282-43.5622295z m-394.35677402 41.26981997c11.46419713 9.17071286 22.92839425 18.34250045 36.68500092 27.51321333 16.04901618-27.51321332 32.09803238-50.44053283 50.44053284-68.7830333-29.80562285 9.17071286-59.61232043 22.92731952-87.12553376 41.26981997z m222.39919081-66.49062375c-55.02642663 6.87830334-105.46803421 52.7340171-144.44436992 119.22464085 45.85463903 25.21972905 94.00276235 38.97633571 144.44436992 45.85463904v-165.07927989z m48.14812329 165.07927989c55.02642663-2.29240953 100.88106567-18.34142572 135.27258231-38.97633571C642.68776325 122.28590593 594.53963995 76.43019216 544.09910711 62.67358551v165.07927989zM353.79902343 771.13882839c-2.29240953 0-2.29240953 0 0 0-11.46419713-11.46312238-11.46419713-27.51321332-2.29240953-36.68392618l84.83204947-84.83204948-277.42454268-4.5858938 6.87830333 277.42454269L257.50277682 830.75114881c9.17071286-9.17071286 25.22080379-9.17071286 34.39151665 0 0 0 2.29240953 0 2.29240953 2.29240955 77.95482088 82.53963995 171.95758323 121.5170504 291.18222409 114.63874705 94.00276235-4.5858938 178.83588655-43.56222952 254.49722317-119.22356612C780.25382983 851.38605881 711.47079654 865.14266547 644.98017278 865.14266547c-13.75660666 0-27.51321332 0-41.26981997-2.29240953-103.17454994-6.87830334-185.71418988-36.68500091-249.91132938-91.71142755z" p-id="12199"></path></svg>