<?xml version="1.0" standalone="no"?><!DOCTYPE svg PUBLIC "-//W3C//DTD SVG 1.1//EN" "http://www.w3.org/Graphics/SVG/1.1/DTD/svg11.dtd"><svg class="icon" width="200px" height="200.00px" viewBox="0 0 1024 1024" version="1.1" xmlns="http://www.w3.org/2000/svg"><path d="M943.475 736.647L625.38 152.353c-24.26-40.08-66.447-64.337-113.38-64.337s-89.122 24.257-113.381 64.337L80.526 736.647c-24.254 41.663-24.783 91.234-1.051 132.892 23.729 41.658 66.442 66.445 114.432 66.445h636.187c47.99 0 90.705-24.787 114.432-66.445 23.732-41.658 23.203-91.229-1.051-132.892z" fill="#FFCC00" /><path d="M944.526 869.54c-23.729 41.657-66.442 66.444-114.432 66.444H512V88.016c46.934 0 89.122 24.26 113.381 64.337l318.094 584.295c24.254 41.662 24.783 91.233 1.051 132.891z" fill="#FFCC00" /><path d="M898.123 763.543L580.026 179.244C565.791 154.988 539.951 140.75 512 140.75s-53.79 14.24-68.025 38.494L125.878 763.543c-14.764 24.787-14.764 54.842-0.524 79.629 14.236 25.31 40.074 40.078 68.555 40.078h636.187c28.478 0 54.318-14.767 68.555-40.078 14.236-24.787 14.236-54.842-0.528-79.629z" fill="#FFCC00" /><path d="M898.649 843.172c-14.237 25.31-40.075 40.078-68.555 40.078H512v-742.5c27.951 0 53.791 14.24 68.026 38.494l318.097 584.299c14.764 24.787 14.764 54.842 0.526 79.629z" fill="#FFCC00" /><path d="M512 830.516c-29.07 0-52.734-23.664-52.734-52.735S482.93 725.047 512 725.047s52.735 23.664 52.735 52.734S541.07 830.516 512 830.516z m52.735-210.938c0 29.07-23.664 52.735-52.735 52.735s-52.734-23.664-52.734-52.735V355.906c0-29.07 23.664-52.734 52.734-52.734s52.735 23.664 52.735 52.734v263.672z" fill="#FFFFFF" /><path d="M564.735 777.781c0-29.07-23.664-52.734-52.735-52.734v105.469c29.071 0 52.735-23.664 52.735-52.735z m0-158.203V355.906c0-29.07-23.664-52.734-52.735-52.734v369.14c29.071 0 52.735-23.663 52.735-52.734z" fill="#FFFFFF" /></svg>