<?xml version="1.0" standalone="no"?><!DOCTYPE svg PUBLIC "-//W3C//DTD SVG 1.1//EN" "http://www.w3.org/Graphics/SVG/1.1/DTD/svg11.dtd"><svg t="1655791863572" class="icon" viewBox="0 0 1024 1024" version="1.1" xmlns="http://www.w3.org/2000/svg" p-id="3308" xmlns:xlink="http://www.w3.org/1999/xlink" width="200" height="200"><defs><style type="text/css"></style></defs><path d="M928.437255 750.898604a479.977801 479.977801 0 0 1-70.396744 145.059958c-42.664693 63.99704-87.462622 125.860846-155.726131 125.860846S610.585289 981.287949 533.788841 981.287949s-104.528499 40.531459-168.525539 42.664693S245.80216 955.689133 203.137467 893.825327C115.674845 767.964482 47.411336 535.441902 139.140427 379.715771a251.721691 251.721691 0 0 1 211.190232-130.127314c66.130275 0 127.99408 44.797928 168.525539 44.797928s117.327907-55.464101 196.25759-46.931163a241.055518 241.055518 0 0 1 187.724651 100.262029c-4.266469 4.266469-110.928203 68.263509-110.928203 196.25759a226.122875 226.122875 0 0 0 136.527019 206.923763M663.916156 164.25907A232.522579 232.522579 0 0 0 717.247023 0 232.522579 232.522579 0 0 0 565.787361 76.796448a209.056998 209.056998 0 0 0-53.330867 159.992601 209.056998 209.056998 0 0 0 151.459662-72.529979" fill="#34A2FF" p-id="3309"></path></svg>