<?xml version="1.0" standalone="no"?><!DOCTYPE svg PUBLIC "-//W3C//DTD SVG 1.1//EN" "http://www.w3.org/Graphics/SVG/1.1/DTD/svg11.dtd"><svg t="1655791704102" class="icon" viewBox="0 0 1024 1024" version="1.1" xmlns="http://www.w3.org/2000/svg" p-id="2734" xmlns:xlink="http://www.w3.org/1999/xlink" width="200" height="200"><defs><style type="text/css"></style></defs><path d="M633.496991 204.953912a19.196393 19.196393 0 0 1-19.196393-19.196392 19.196393 19.196393 0 0 1 17.06346-21.329325 19.196393 19.196393 0 0 1 21.329326 17.06346 19.196393 19.196393 0 0 1-14.930528 23.462257z m-243.154307 0a19.196393 19.196393 0 0 1-21.329326-21.329325 23.462258 23.462258 0 0 1 19.196393-21.329325 23.462258 23.462258 0 0 1 21.329325 19.196393 19.196393 19.196393 0 0 1-14.930527 23.462257z m251.686037-117.311288a223.957915 223.957915 0 0 1 134.374749 198.362724H247.436205a223.957915 223.957915 0 0 1 134.374749-198.362724l-10.664663-17.06346-10.664663-17.06346L337.019371 15.122918c-2.132933-4.265865-2.132933-10.664663 2.132932-12.797595h14.930528L377.545089 42.851041l10.664662 17.06346 10.664663 17.06346a296.47762 296.47762 0 0 1 113.045423-21.329325 296.47762 296.47762 0 0 1 113.045424 21.329325l10.664662-17.06346L669.756844 4.458256c4.265865-4.265865 8.53173-6.398798 12.797595-2.132933h2.132932c4.265865 2.132933 4.265865 8.53173 2.132933 12.797595l-23.462258 38.392786-10.664662 17.06346zM251.70207 328.663999h524.7014v432.985301a61.855043 61.855043 0 0 1-59.722111 61.855043h-42.65865c0 6.398798 2.132933 10.664663 2.132932 17.06346v123.710086a57.589178 57.589178 0 0 1-55.456245 59.722111H618.566463a55.456246 55.456246 0 0 1-55.456245-55.456246v-127.975951a46.924515 46.924515 0 0 1 2.132932-17.06346h-106.646626a46.924515 46.924515 0 0 1 2.132933 17.06346v123.710086a57.589178 57.589178 0 0 1-51.190381 59.722111H405.273211a57.589178 57.589178 0 0 1-57.589178-57.589178v-125.843019c0-6.398798 2.132933-10.664663 2.132933-17.06346h-42.658651a61.855043 61.855043 0 0 1-59.72211-61.855043V328.663999z m-104.513694 0a59.722111 59.722111 0 0 1 59.722111 57.589178v251.686037a61.855043 61.855043 0 0 1-121.577154 0V386.253177a61.855043 61.855043 0 0 1 61.855043-57.589178z m729.462922 0a61.855043 61.855043 0 0 1 61.855043 57.589178v251.686037a61.855043 61.855043 0 0 1-72.519705 49.057448 59.722111 59.722111 0 0 1-49.057448-49.057448V386.253177a59.722111 59.722111 0 0 1 59.72211-57.589178z" fill="#A4C639" p-id="2735"></path></svg>