<?xml version="1.0" standalone="no"?><!DOCTYPE svg PUBLIC "-//W3C//DTD SVG 1.1//EN" "http://www.w3.org/Graphics/SVG/1.1/DTD/svg11.dtd"><svg t="1655791847473" class="icon" viewBox="0 0 1350 1024" version="1.1" xmlns="http://www.w3.org/2000/svg" p-id="3008" xmlns:xlink="http://www.w3.org/1999/xlink" width="263.671875" height="200"><defs><style type="text/css"></style></defs><path d="M900.21978 590.769231c90.021978 0 216.615385-19.692308 216.615385-123.78022v-22.505495l-53.45055-230.681318c-14.065934-50.637363-22.505495-73.142857-112.527472-115.34066S731.428571 0 689.230769 0s-53.450549 53.450549-104.087912 53.450549S503.56044 14.065934 458.549451 14.065934 388.21978 45.010989 365.714286 104.087912c0 0-59.076923 168.791209-64.703297 191.296703a25.318681 25.318681 0 0 0-2.813187 14.065934c0 64.703297 258.813187 281.318681 602.021978 281.318682z m230.681319-81.582418a312.263736 312.263736 0 0 1 14.065934 70.329671c0 101.274725-112.527473 154.725275-258.813187 154.725274-331.956044 0-624.527473-194.10989-624.527472-320.703296a163.164835 163.164835 0 0 1 11.252747-53.45055c-118.153846 5.626374-272.879121 28.131868-272.879121 163.164835 0 225.054945 528.879121 500.747253 948.043956 500.747253 320.703297 0 402.285714-146.285714 402.285714-261.626374s-78.769231-191.296703-219.428571-253.186813z" fill="#EE0000" p-id="3009"></path></svg>