<?xml version="1.0" standalone="no"?><!DOCTYPE svg PUBLIC "-//W3C//DTD SVG 1.1//EN" "http://www.w3.org/Graphics/SVG/1.1/DTD/svg11.dtd"><svg t="1655791859343" class="icon" viewBox="0 0 1024 1024" version="1.1" xmlns="http://www.w3.org/2000/svg" p-id="3158" xmlns:xlink="http://www.w3.org/1999/xlink" width="200" height="200"><defs><style type="text/css"></style></defs><path d="M512 0A512 512 0 0 0 0 512v396.94382a115.05618 115.05618 0 0 0 115.05618 115.05618h396.94382a512 512 0 0 0 0-1024z m-373.932584 911.820225a235.865169 235.865169 0 0 1-83.415731-181.213483 244.494382 244.494382 0 0 1 163.955057-230.11236 129.438202 129.438202 0 0 0-8.629214 46.022472 103.550562 103.550562 0 0 0 25.887641 69.033708 129.438202 129.438202 0 0 0-69.033708 115.05618 123.685393 123.685393 0 0 0 31.640449 80.539325 103.550562 103.550562 0 0 0-60.404494 94.921349zM661.573034 238.741573a126.561798 126.561798 0 0 0-126.561798 126.561798v109.303371a17.258427 17.258427 0 0 0 14.382022 17.258427h86.292135a57.52809 57.52809 0 0 1 57.52809 57.528089 60.404494 60.404494 0 0 1-54.651685 54.651686h-103.550562v126.561798a238.741573 238.741573 0 0 1-235.865169 241.617977h-2.876404l-54.651685-5.752809a63.280899 63.280899 0 0 1-48.898877-57.52809 60.404494 60.404494 0 0 1 54.651686-54.651685h48.898876a126.561798 126.561798 0 0 0 126.561798-126.561798v-109.303371a17.258427 17.258427 0 0 0-14.382023-17.258427h-86.292135a57.52809 57.52809 0 0 1-57.52809-57.52809 60.404494 60.404494 0 0 1 54.651686-54.651685h103.550562v-129.438202A238.741573 238.741573 0 0 1 661.573034 120.808989a178.337079 178.337079 0 0 1 54.651685 5.752809 63.280899 63.280899 0 0 1 48.898877 54.651685 57.52809 57.52809 0 0 1-54.651686 57.52809z m74.786517 350.921348A80.539326 80.539326 0 0 0 747.865169 546.516854a109.303371 109.303371 0 0 0-25.887641-71.910112 126.561798 126.561798 0 0 0 54.651685-169.707866l-17.258426-25.88764a103.550562 103.550562 0 0 0 60.404494-94.921348v-5.752809a235.865169 235.865169 0 0 1 83.41573 184.089887 241.617978 241.617978 0 0 1-166.83146 227.235955z" fill="#008CDB" p-id="3159"></path></svg>