<svg xmlns="http://www.w3.org/2000/svg" viewBox="0 0 997.7 1000"><title>容器镜像库</title><path d="M461,1V382.7H401.2V61.4H61.3V940.7H400.8V623.4H461V1001H1.1V1Z" transform="translate(-1.1 -1)"/><path d="M709,640.9c-13.4-13.5-27.3-27.3-41.1-41.1l68.2-68.1a6.4,6.4,0,0,0-.8-1.4h-555V470.1H735L666.9,402l42.5-42.4L849.7,500.1Z" transform="translate(-1.1 -1)"/><path d="M579.6,81.8H520.3V2.4h59.3Z" transform="translate(-1.1 -1)"/><path d="M723.6,61.8H644.3V2.4h79.3Z" transform="translate(-1.1 -1)"/><path d="M872.6,61.8H793.3V2.4h79.3Z" transform="translate(-1.1 -1)"/><path d="M998.7,81.8H939.3V2.3h59.4Z" transform="translate(-1.1 -1)"/><path d="M579.7,231.8H520.3V152.4h59.4Z" transform="translate(-1.1 -1)"/><path d="M939.4,152.2h59.3v79.4H939.4Z" transform="translate(-1.1 -1)"/><path d="M520.2,381.7V302.4h59.5v79.3Z" transform="translate(-1.1 -1)"/><path d="M939.1,381.6V302.4h59.6v79.2Z" transform="translate(-1.1 -1)"/><path d="M939.4,462.2h59.3v79.4H939.4Z" transform="translate(-1.1 -1)"/><path d="M520.4,620.2h59.3v79.4H520.4Z" transform="translate(-1.1 -1)"/><path d="M939.3,620.2h59.4v79.4H939.3Z" transform="translate(-1.1 -1)"/><path d="M520.2,849.6V770.3h59.4v79.3Z" transform="translate(-1.1 -1)"/><path d="M939.2,849.6V770.3h59.4v79.3Z" transform="translate(-1.1 -1)"/><path d="M579.8,920.3v79.3H520.3V920.3Z" transform="translate(-1.1 -1)"/><path d="M998.6,999.8H939.3V920.4h59.3Z" transform="translate(-1.1 -1)"/><path d="M644.4,940.2h79.3v59.4H644.4Z" transform="translate(-1.1 -1)"/><path d="M793.4,940.2h79.3v59.4H793.4Z" transform="translate(-1.1 -1)"/></svg>