<?xml version="1.0" standalone="no"?><!DOCTYPE svg PUBLIC "-//W3C//DTD SVG 1.1//EN" "http://www.w3.org/Graphics/SVG/1.1/DTD/svg11.dtd"><svg t="1655791874785" class="icon" viewBox="0 0 1024 1024" version="1.1" xmlns="http://www.w3.org/2000/svg" p-id="3608" xmlns:xlink="http://www.w3.org/1999/xlink" width="200" height="200"><defs><style type="text/css"></style></defs><path d="M634.08 64H389.872C359.936 64 336 87.008 336 115.456c0 28.496 24 51.568 53.888 51.568h245.696C664 167.04 688 143.952 688 115.456 688 87.008 664.048 64 634.08 64z" fill="#333333" p-id="3609"></path><path d="M304.464 98.336a117.6 117.6 0 0 0-1.536 17.968c0 45.472 27.936 90.208 62.832 90.208h302.32c33.168 0 61.056-44.736 61.024-90.208 0-6.064-0.544-12.048-1.488-17.968h96.896C894.56 98.336 928 149.184 928 222.512V837.04c0 88.272-35.728 122.832-109.232 122.832H196.176C122.672 959.872 96 915.792 96 836.992V222.528c0-73.328 18.624-124.16 94.448-124.16z m391.536 624H328a40 40 0 1 0 0 80h368a40 40 0 1 0 0-80z m0-192H328a40 40 0 1 0 0 80h368a40 40 0 1 0 0-80z m0-192H328a40 40 0 1 0 0 80h368a40 40 0 1 0 0-80z" fill="#FFBD27" p-id="3610"></path></svg>