<?xml version="1.0" standalone="no"?><!DOCTYPE svg PUBLIC "-//W3C//DTD SVG 1.1//EN" "http://www.w3.org/Graphics/SVG/1.1/DTD/svg11.dtd"><svg t="1655796745270" class="icon" viewBox="0 0 1024 1024" version="1.1" xmlns="http://www.w3.org/2000/svg" p-id="12047" xmlns:xlink="http://www.w3.org/1999/xlink" width="200" height="200"><defs><style type="text/css"></style></defs><path d="M871.02412506 912.98202114a36.30173155 36.30173155 0 1 1-50.82242418-51.5484588A429.08646697 429.08646697 0 0 0 947.62077864 556.49901728a435.62077864 435.62077864 0 0 0-871.24155728 0 429.08646697 429.08646697 0 0 0 127.41907776 304.93454506 36.30173155 36.30173155 0 0 1 0 51.18544149 36.30173155 36.30173155 0 0 1-51.5484588 0A503.50501663 503.50501663 0 0 1 512 52.26796602a508.22424175 508.22424175 0 0 1 508.22424175 504.23105126 500.96389545 500.96389545 0 0 1-149.20011669 356.48300386z" p-id="12048"></path><path d="M40.07748982 633.09567087a36.30173155 36.30173155 0 0 1 0-72.60346312h72.60346309a36.30173155 36.30173155 0 0 1 0 72.60346312z m871.24155727 0a36.30173155 36.30173155 0 0 1 0-72.60346312h72.60346309a36.30173155 36.30173155 0 0 1 0 72.60346312zM159.51018663 259.55085317a36.30173155 36.30173155 0 1 1 51.54845879-51.54845881l36.30173155 36.30173157a36.30173155 36.30173155 0 0 1-51.54845881 51.5484588z m617.1294364 617.1294364a36.30173155 36.30173155 0 0 1 51.54845881-51.54845879l36.30173153 36.30173156a36.30173155 36.30173155 0 0 1-51.54845879 51.5484588z m36.30173155-668.67789521a36.30173155 36.30173155 0 1 1 51.54845879 51.54845881l-36.30173153 36.30173156a36.30173155 36.30173155 0 0 1-51.54845881-51.5484588z m-617.12943642 617.12943642a36.30173155 36.30173155 0 0 1 51.54845881 51.54845879l-36.30173155 36.30173157a36.30173155 36.30173155 0 0 1-51.54845879-51.5484588zM475.69826845 124.87142911a36.30173155 36.30173155 0 0 1 72.6034631 0v72.60346311a36.30173155 36.30173155 0 0 1-72.6034631 0z m133.59037212 392.4217181l-36.30173155 9.80146751a520.92984778 520.92984778 0 0 0-78.04872287 25.04819477 47.55526834 47.55526834 0 0 0-13.79465797 60.62389169 32.30854108 32.30854108 0 0 0 46.82923371 15.24672727 751.80886047 751.80886047 0 0 0 79.5007921-85.30906916l8.71241557-9.80146752 18.15086577-21.78103893z m-55.17863197-60.62389169l36.30173155-9.80146753c28.67836793-7.26034632 59.17182244-14.52069262 89.66527694-21.41802161l29.40440257-6.897329 11.61655409-2.5411212a36.30173155 36.30173155 0 0 1 36.30173155 58.08277048c0 1.81508658-3.63017315 5.08224243-7.26034632 9.07543289l-19.2399177 23.9591428c-20.32896967 24.68517745-40.65793934 49.37035491-60.26087441 72.60346313l-8.71241556 10.16448483a614.95133251 614.95133251 0 0 1-95.8365713 99.46674447 104.91200419 104.91200419 0 0 1-149.9261513-42.83604325 120.15873144 120.15873144 0 0 1 39.20587008-155.73442837 439.97698642 439.97698642 0 0 1 98.74070981-34.12362764z" p-id="12049"></path></svg>