<?xml version="1.0" standalone="no"?><!DOCTYPE svg PUBLIC "-//W3C//DTD SVG 1.1//EN" "http://www.w3.org/Graphics/SVG/1.1/DTD/svg11.dtd"><svg t="1655339616357" class="icon" viewBox="0 0 1024 1024" version="1.1" xmlns="http://www.w3.org/2000/svg" p-id="1970" xmlns:xlink="http://www.w3.org/1999/xlink" width="200" height="200"><defs><style type="text/css"></style></defs><path d="M765.952 124.928l0 81.92 0 129.024 0 156.672 0 159.744q0 76.8 0.512 141.312t0.512 100.352q0 24.576-11.776 40.96t-29.696 22.016-39.424 0-39.936-24.064q-37.888-38.912-81.92-81.408t-90.624-85.504-94.208-86.016-91.648-82.944q-19.456-17.408-29.184-43.008t-8.704-53.248 11.776-54.272 32.256-45.056q39.936-34.816 79.36-70.144t80.896-72.704 87.04-78.336 96.768-87.04q22.528-20.48 45.568-27.136t41.472-2.048 29.696 20.48 11.264 40.448z" p-id="1971"></path></svg>