<?xml version="1.0" standalone="no"?><!DOCTYPE svg PUBLIC "-//W3C//DTD SVG 1.1//EN" "http://www.w3.org/Graphics/SVG/1.1/DTD/svg11.dtd"><svg t="1655340236082" class="icon" viewBox="0 0 1024 1024" version="1.1" xmlns="http://www.w3.org/2000/svg" p-id="1970" xmlns:xlink="http://www.w3.org/1999/xlink" width="200" height="200"><defs><style type="text/css"></style></defs><path d="M512 731.428571c-39.5008 0-71.5008 32.749714-71.5008 73.142857s32 73.142857 71.5008 73.142857 71.5008-32.749714 71.5008-73.142857S551.5008 731.428571 512 731.428571z" p-id="1971"></path><path d="M252.750629 649.106286l50.536229 51.679086C359.535543 651.607771 432.356571 621.714286 512 621.714286s152.4992 29.893486 208.749714 79.107657L771.285943 649.142857c-69.321143-62.392686-159.892114-100.571429-259.285943-100.571429C412.642743 548.571429 322.0352 586.750171 252.750629 649.106286z" p-id="1972"></path><path d="M126.357943 519.857371l50.536229 51.713829C265.749943 489.393371 383.071086 438.857143 512 438.857143s246.250057 50.536229 335.107657 132.714057l50.536229-51.679086C795.785143 424.4992 660.642743 365.714286 512 365.714286S228.214857 424.4992 126.357943 519.857371z" p-id="1973"></path><path d="M512 182.857143C314.071771 182.857143 134.286629 262.178743 0 390.6432l50.570971 51.679086C171.856457 327.107657 333.7856 256 512 256s340.143543 71.107657 461.463771 186.357029L1024 390.6432C889.713371 262.178743 709.928229 182.857143 512 182.857143z" p-id="1974"></path></svg>